<svg xmlns="http://www.w3.org/2000/svg" viewBox="0 0 1480 1400" width="1480" height="1400" font-family="'Droid Sans Fallback','Droid Sans','DejaVu Sans',sans-serif">
  <defs><marker id="arr" markerWidth="11" markerHeight="9" refX="9.5" refY="4.5" orient="auto" markerUnits="userSpaceOnUse"><path d="M0,0 L11,4.5 L0,9 Z" fill="#5a6b7c"/></marker><marker id="arrC" markerWidth="11" markerHeight="9" refX="9.5" refY="4.5" orient="auto" markerUnits="userSpaceOnUse"><path d="M0,0 L11,4.5 L0,9 Z" fill="#7c3aed"/></marker></defs>
  <rect x="0" y="0" width="1480" height="1400" fill="#ffffff"/>
  <text x="30" y="34" font-size="20" font-weight="700" fill="#1f2937">920f · HiSilicon part 0xd22 微架构功能图（ARMv9 · SVE512+SME2 · 黑盒实测）</text>
  <text x="30" y="56" font-size="12" fill="#6b7280">布局 = 黑盒结构：大量未公开（灰虚线）+ SVE512/SME2 宽向量金卡 + 无 LLC 扁平层级 + 64KB 强制页。出处：920f.md NSCC cn23154 实测</text>
  <rect x="30" y="72" width="1420" height="36" rx="6" fill="#f7f9fb" stroke="#c6d2dd"/>
    <line x1="46" y1="90" x2="72" y2="90" stroke="#5a6b7c" stroke-width="2" marker-end="url(#arr)"/>
    <text x="78" y="94" font-size="11.5" fill="#1f2937">指令/数据流</text>
    <line x1="201" y1="90" x2="227" y2="90" stroke="#7c3aed" stroke-width="2" stroke-dasharray="5,3" marker-end="url(#arrC)"/>
    <text x="233" y="94" font-size="11.5" fill="#1f2937">控制流</text>
    <rect x="313" y="83" width="14" height="14" fill="#fffbeb" stroke="#b45309" stroke-width="2.6"/>
    <text x="333" y="94" font-size="11.5" fill="#1f2937">独有/标志性</text>
    <rect x="456" y="83" width="14" height="14" fill="#f9fafb" stroke="#9ca3af" stroke-width="1.3" stroke-dasharray="4,3"/>
    <text x="476" y="94" font-size="11.5" fill="#1f2937">未公开/黑盒</text>
    <line x1="599" y1="90" x2="621" y2="90" stroke="#b91c1c" stroke-width="3.5"/>
    <text x="627" y="94" font-size="11.5" fill="#1f2937">SDC 高危/无保护</text>
  <rect x="30" y="130" width="1420" height="240" rx="10" fill="#eaf2fb" stroke="#a9c9ec" stroke-width="1.5"/>
  <rect x="30" y="106" width="210" height="24" rx="5" fill="#4a5f78"/>
  <text x="41" y="123.5" font-size="14" fill="#ffffff" font-weight="600">A·前端 Fetch（规格未公开）</text>
  <text x="256" y="123" font-size="11.5" fill="#4a5f78" font-style="italic">分支预测器容量待测（bpbench 未完成）· 仅 AArch64 · CTR_EL0=0x9444c004（ERG=64B）</text>
  <rect x="50" y="166" width="250" height="130" rx="7" fill="#f9fafb" stroke="#9ca3af" stroke-width="1.5" stroke-dasharray="6,4"/>
  <text x="175.0" y="188" font-size="13" fill="#1f2937" text-anchor="middle" font-weight="700">BPU（未公开）</text>
  <text x="175.0" y="208" font-size="10.5" fill="#1f2937" text-anchor="middle">BTB/返回栈 RAS/间接预测容量</text>
  <text x="175.0" y="225" font-size="10.5" fill="#1f2937" text-anchor="middle">均未测得（待 bpbench）</text>
  <text x="175.0" y="242" font-size="10.5" fill="#1f2937" text-anchor="middle">CSV2/3=1（推测攻击缓解在）</text>
  <rect x="340" y="166" width="210" height="130" rx="7" fill="#ffffff" stroke="#7c93a8" stroke-width="1.5"/>
  <text x="445.0" y="188" font-size="13" fill="#1f2937" text-anchor="middle" font-weight="700">L1i-Cache 32KB 4-way</text>
  <text x="445.0" y="208" font-size="10.5" fill="#1f2937" text-anchor="middle">64B 行（CTR 实测）</text>
  <text x="445.0" y="225" font-size="10.5" fill="#b91c1c" text-anchor="middle" font-weight="600">ECC/parity 未披露</text>
  <text x="445.0" y="242" font-size="10.5" fill="#1f2937" text-anchor="middle">（RAS=1 但无 TRM）</text>
  <rect x="580" y="166" width="210" height="130" rx="7" fill="#f9fafb" stroke="#9ca3af" stroke-width="1.5" stroke-dasharray="6,4"/>
  <text x="685.0" y="188" font-size="13" fill="#1f2937" text-anchor="middle" font-weight="700">Decode / Rename / Dispatch</text>
  <text x="685.0" y="208" font-size="10.5" fill="#1f2937" text-anchor="middle">宽度未公开</text>
  <text x="685.0" y="225" font-size="10.5" fill="#1f2937" text-anchor="middle">仅 A64 指令集</text>
  <text x="685.0" y="242" font-size="10.5" fill="#1f2937" text-anchor="middle">（无 AArch32）</text>
  <rect x="820" y="166" width="330" height="178" rx="7" fill="#fffbeb" stroke="#b45309" stroke-width="3"/>
  <text x="832" y="188" font-size="13" fill="#1f2937" text-anchor="start" font-weight="700">SVE 512-bit + SME/SME2（五款唯一宽向量）</text>
  <text x="832" y="208" font-size="10.5" fill="#1f2937" text-anchor="start">· SVEver=1 · f32mm/f64mm/BF16=1 · 实测 VL=64B</text>
  <text x="832" y="225" font-size="10.5" fill="#1f2937" text-anchor="start">· SME2：f64f64/b16f32/f32f32/i8i32（fa64=0）</text>
  <text x="832" y="242" font-size="10.5" fill="#b91c1c" text-anchor="start" font-weight="600">· Z0–Z31 × 512b + 矩阵 tile = 新增大面积无保护数据面</text>
  <text x="832" y="259" font-size="10.5" fill="#1f2937" text-anchor="start">· SVE512 FMA 实测 ≥13.6 flop/cyc（理论 16）</text>
  <text x="832" y="276" font-size="10.5" fill="#b91c1c" text-anchor="start" font-weight="600">· 单向量翻转影响 64B 连续数据</text>
  <rect x="1180" y="166" width="240" height="130" rx="7" fill="#ffffff" stroke="#7c93a8" stroke-width="1.5"/>
  <text x="1192" y="188" font-size="13" fill="#1f2937" text-anchor="start" font-weight="700">ISA 扩展（实测）</text>
  <text x="1192" y="208" font-size="10.5" fill="#1f2937" text-anchor="start">SHA1/2/512 · SHA3 · SM3/SM4</text>
  <text x="1192" y="225" font-size="10.5" fill="#1f2937" text-anchor="start">LRCPC2/3 · i8mm · bf16 · RPRES</text>
  <text x="1192" y="242" font-size="10.5" fill="#1f2937" text-anchor="start">WFXT · SVE2 全集 · AES · LSE</text>
  <text x="1192" y="259" font-size="10.5" fill="#b91c1c" text-anchor="start" font-weight="600">BTI=0 · MTE=0 · RNDR=0</text>
  <path d="M300,230 L334,230" fill="none" stroke="#7c3aed" stroke-width="1.6" marker-end="url(#arrC)"/>
  <path d="M550,230 L574,230" fill="none" stroke="#5a6b7c" stroke-width="1.6" marker-end="url(#arr)"/>
  <path d="M790,230 L814,230" fill="none" stroke="#5a6b7c" stroke-width="1.6" marker-end="url(#arr)"/>
  <path d="M1150,230 L1174,230" fill="none" stroke="#5a6b7c" stroke-width="1.6" marker-end="url(#arr)"/>
  <rect x="30" y="400" width="1420" height="300" rx="10" fill="#fdf2e5" stroke="#edcba0" stroke-width="1.5"/>
  <rect x="30" y="376" width="210" height="24" rx="5" fill="#a05a2c"/>
  <text x="41" y="393.5" font-size="14" fill="#ffffff" font-weight="600">B+C·后端 OoO Execute（吞吐实测）</text>
  <text x="256" y="393" font-size="11.5" fill="#a05a2c" font-style="italic">标量 FMA 2/cyc · NEON128 FMA 2/cyc · SVE512 FMA ≥2/cyc——三级向量吞吐阶梯全部双发</text>
  <rect x="50" y="436" width="300" height="150" rx="7" fill="#ffffff" stroke="#7c93a8" stroke-width="1.5"/>
  <text x="62" y="458" font-size="13" fill="#1f2937" text-anchor="start" font-weight="700">标量 / NEON 通路</text>
  <text x="62" y="478" font-size="10.5" fill="#1f2937" text-anchor="start">· 标量 FMADD 8 链：8.0 Gflop/s = 4 flop/cyc</text>
  <text x="62" y="495" font-size="10.5" fill="#1f2937" text-anchor="start">· NEON128 8×2lane：13.5 Gflop/s ≈ 6.75</text>
  <text x="62" y="512" font-size="10.5" fill="#b45309" text-anchor="start" font-weight="600">· 标量 FMA 双端口实证（920 为 FP 单口怪点）</text>
  <text x="62" y="529" font-size="10.5" fill="#1f2937" text-anchor="start">· 单核理论 128 Gflop/s（SVE512 FP64）</text>
  <rect x="380" y="436" width="330" height="178" rx="7" fill="#fffbeb" stroke="#b45309" stroke-width="3"/>
  <text x="392" y="458" font-size="13" fill="#1f2937" text-anchor="start" font-weight="700">SVE512 数据通路</text>
  <text x="392" y="478" font-size="10.5" fill="#1f2937" text-anchor="start">· SVE512 8×8lane：27.2 Gflop/s 下限（~13.6）</text>
  <text x="392" y="495" font-size="10.5" fill="#1f2937" text-anchor="start">· 608 核节点理论 ~77.8 Tflop/s（FP64）</text>
  <text x="392" y="512" font-size="10.5" fill="#b91c1c" text-anchor="start" font-weight="600">· 单向量翻转影响 64B 连续数据</text>
  <text x="392" y="529" font-size="10.5" fill="#6b7280" text-anchor="start">· flopbench 修正版待复测（初版被编译器削链）</text>
  <text x="392" y="546" font-size="10.5" fill="#b91c1c" text-anchor="start" font-weight="600">· 全部数据面无保护披露</text>
  <rect x="740" y="436" width="300" height="150" rx="7" fill="#f9fafb" stroke="#9ca3af" stroke-width="1.5" stroke-dasharray="6,4"/>
  <text x="890.0" y="458" font-size="13" fill="#1f2937" text-anchor="middle" font-weight="700">PRF / ROB / 调度器（未公开）</text>
  <text x="890.0" y="478" font-size="10.5" fill="#1f2937" text-anchor="middle">容量/结构黑盒</text>
  <text x="890.0" y="495" font-size="10.5" fill="#1f2937" text-anchor="middle">与五款一致：无任何保护披露</text>
  <text x="890.0" y="512" font-size="10.5" fill="#1f2937" text-anchor="middle">FI 实验按 gem5 O3 通用模型注入</text>
  <rect x="1070" y="436" width="350" height="150" rx="7" fill="#ffffff" stroke="#7c93a8" stroke-width="1.5"/>
  <text x="1082" y="458" font-size="13" fill="#1f2937" text-anchor="start" font-weight="700">LSU / 访存</text>
  <text x="1082" y="478" font-size="10.5" fill="#1f2937" text-anchor="start">· LSE 原子 · LRCPC2/3（LDAPR 系增强）</text>
  <text x="1082" y="495" font-size="10.5" fill="#1f2937" text-anchor="start">· DC ZVA 64B</text>
  <text x="1082" y="512" font-size="10.5" fill="#b91c1c" text-anchor="start" font-weight="600">· LSQ/store buffer 保护未披露（五款共同盲区）</text>
  <text x="1082" y="529" font-size="10.5" fill="#6b7280" text-anchor="start">· 定频 2.0GHz（userspace 锁 MAX）→ 测量无变频噪声</text>
  <path d="M350,510 L374,510" fill="none" stroke="#5a6b7c" stroke-width="1.6" marker-end="url(#arr)"/>
  <path d="M710,510 L734,510" fill="none" stroke="#5a6b7c" stroke-width="1.6" marker-end="url(#arr)"/>
  <path d="M1040,510 L1064,510" fill="none" stroke="#5a6b7c" stroke-width="1.6" marker-end="url(#arr)"/>
  <rect x="30" y="730" width="1420" height="240" rx="10" fill="#f1edfb" stroke="#cfc0ef" stroke-width="1.5"/>
  <rect x="30" y="706" width="210" height="24" rx="5" fill="#6d5aa0"/>
  <text x="41" y="723.5" font-size="14" fill="#ffffff" font-weight="600">F+G·内存层级（无 LLC）</text>
  <text x="256" y="723" font-size="11.5" fill="#6d5aa0" font-style="italic">16 计算 NUMA + 16 无 CPU 内存节点（疑似 CXL/近存）· 跨 socket 距离 61–91 · 8×200GbE RoCE 聚合 1.6Tb/s</text>
  <rect x="50" y="766" width="250" height="150" rx="7" fill="#ffffff" stroke="#7c93a8" stroke-width="1.5"/>
  <text x="175.0" y="788" font-size="13" fill="#1f2937" text-anchor="middle" font-weight="700">L1d-Cache 32KB 8-way</text>
  <text x="175.0" y="808" font-size="10.5" fill="#1f2937" text-anchor="middle">64B 行 · 实测 ~5.0ns（≈10c）</text>
  <text x="175.0" y="825" font-size="10.5" fill="#b45309" text-anchor="middle" font-weight="600">8-way（同代 Neoverse 为 4-way）</text>
  <text x="175.0" y="842" font-size="10.5" fill="#b91c1c" text-anchor="middle" font-weight="600">ECC 未披露</text>
  <text x="175.0" y="859" font-size="10.5" fill="#1f2937" text-anchor="middle">容量 32KB &lt; 920 的 64KB</text>
  <rect x="330" y="766" width="290" height="150" rx="7" fill="#fffbeb" stroke="#b45309" stroke-width="3"/>
  <text x="475.0" y="788" font-size="13" fill="#1f2937" text-anchor="middle" font-weight="700">L2 私有 768KB 12-way</text>
  <text x="475.0" y="808" font-size="10.5" fill="#1f2937" text-anchor="middle">统一 I+D · 实测 ~8.7ns（≈17c）</text>
  <text x="475.0" y="825" font-size="10.5" fill="#b45309" text-anchor="middle" font-weight="600">五款中最大私有 L2（N3 可配 2MB 追平）</text>
  <text x="475.0" y="842" font-size="10.5" fill="#b45309" text-anchor="middle" font-weight="600">12-way 非常规（920:8 / N 系:8）</text>
  <text x="475.0" y="859" font-size="10.5" fill="#b91c1c" text-anchor="middle" font-weight="600">ECC 未披露</text>
  <rect x="650" y="766" width="300" height="150" rx="7" fill="#fffbeb" stroke="#b45309" stroke-width="3"/>
  <text x="800.0" y="788" font-size="13" fill="#1f2937" text-anchor="middle" font-weight="700">无 L3 / LLC</text>
  <text x="800.0" y="808" font-size="10.5" fill="#b45309" text-anchor="middle" font-weight="600">sysfs 无 index3 · CLIDR 陷阱实证</text>
  <text x="800.0" y="825" font-size="10.5" fill="#1f2937" text-anchor="middle">SCN 网状远端 8–16MB → 45–90ns</text>
  <text x="800.0" y="842" font-size="10.5" fill="#1f2937" text-anchor="middle">（网络侧缓存，非核侧 LLC）</text>
  <text x="800.0" y="859" font-size="10.5" fill="#1f2937" text-anchor="middle">少一级缓存 = 少一级 SDC 暴露面</text>
  <rect x="980" y="766" width="440" height="150" rx="7" fill="#ffffff" stroke="#7c93a8" stroke-width="1.5"/>
  <text x="992" y="788" font-size="13" fill="#1f2937" text-anchor="start" font-weight="700">DRAM / NUMA</text>
  <text x="992" y="808" font-size="10.5" fill="#1f2937" text-anchor="start">565GB · 16×31–33GB 计算节点</text>
  <text x="992" y="825" font-size="10.5" fill="#1f2937" text-anchor="start">远程 NUMA 实测 ~130ns</text>
  <text x="992" y="842" font-size="10.5" fill="#1f2937" text-anchor="start">node16–31 无 CPU 各 4GB（性质待确认：CXL? HBM?）</text>
  <text x="992" y="859" font-size="10.5" fill="#1f2937" text-anchor="start">PMUv3 6 计数器 + SPE + AMU=1 · DIT=1</text>
  <path d="M300,840 L324,840" fill="none" stroke="#5a6b7c" stroke-width="1.6" marker-end="url(#arr)"/>
  <path d="M620,840 L644,840" fill="none" stroke="#5a6b7c" stroke-width="1.6" marker-end="url(#arr)"/>
  <path d="M950,840 L974,840" fill="none" stroke="#5a6b7c" stroke-width="1.6" marker-end="url(#arr)"/>
  <rect x="30" y="1010" width="1420" height="170" rx="10" fill="#eaf6ee" stroke="#a9d9bc" stroke-width="1.5"/>
  <rect x="30" y="986" width="160" height="24" rx="5" fill="#3f7a58"/>
  <text x="41" y="1003.5" font-size="14" fill="#ffffff" font-weight="600">E·MMU：TLB + PTW（页表遍历）</text>
  <text x="206" y="1003" font-size="11.5" fill="#3f7a58" font-style="italic">TLB 容量未测（缺口，待补）</text>
  <rect x="50" y="1046" width="620" height="110" rx="7" fill="#fffbeb" stroke="#b45309" stroke-width="3"/>
  <text x="62" y="1068" font-size="13" fill="#1f2937" text-anchor="start" font-weight="700">64KB 强制页（TGran4=0xf）</text>
  <text x="62" y="1088" font-size="10.5" fill="#b91c1c" text-anchor="start" font-weight="600">· 单 TLB entry 翻转波及面 ×16（vs 4KB 页）——SDC 放大器</text>
  <text x="62" y="1105" font-size="10.5" fill="#1f2937" text-anchor="start">· PAGESIZE=4096 是内核兼容层假象</text>
  <text x="62" y="1122" font-size="10.5" fill="#b45309" text-anchor="start" font-weight="600">· 未被文献覆盖的放大器实验设计点</text>
  <rect x="700" y="1046" width="720" height="110" rx="7" fill="#ffffff" stroke="#7c93a8" stroke-width="1.5"/>
  <text x="712" y="1068" font-size="13" fill="#1f2937" text-anchor="start" font-weight="700">uncore 观测</text>
  <text x="712" y="1088" font-size="10.5" fill="#1f2937" text-anchor="start">171 perf 设备 = 8 SCCL×(4 DDRC+4 HHA+16 UC) + 14 SICL L3（hisi_sicl3_pa/h60pa）+ SPE + PCIe PTT</text>
  <text x="712" y="1105" font-size="10.5" fill="#1f2937" text-anchor="start">隔离：isolcpus + nohz_full 覆盖 608 核，每 NUMA 留末核处理中断（FI 实验绑核须避开）</text>
  <text x="712" y="1122" font-size="10.5" fill="#6b7280" text-anchor="start">复现入口：dnode -l cn23154 / dattach -c '/home/share/suke/archprobe/...'（详见 920f.md §6）</text>
  <rect x="30" y="1215" width="1420" height="140" rx="10" fill="#fef2f2" stroke="#b91c1c" stroke-width="2"/>
  <text x="46" y="1241" font-size="15" fill="#b91c1c" font-weight="700">H·RAS / 保护状态（SDC 视角）——RAS=1 但防御矩阵黑盒</text>
  <text x="46" y="1263" font-size="11.5" fill="#1f2937">架构化 RAS</text>
  <text x="406" y="1263" font-size="11.5" fill="#047857">ID_AA64PFR0_EL1.RAS = 1（实测）—— 有 ARMv8.2+ RAS 架构扩展，但防御矩阵黑盒</text>
  <text x="46" y="1282" font-size="11.5" fill="#1f2937">与 920 的关键代差</text>
  <text x="406" y="1282" font-size="11.5" fill="#1f2937">ERR* 寄存器 / ESB / 架构化 poison 理论上存在 · 具体注入寄存器布局未知（无厂商 TRM）</text>
  <text x="46" y="1301" font-size="11.5" fill="#1f2937">其他</text>
  <text x="406" y="1301" font-size="11.5" fill="#1f2937">DIT=1（数据无关时间）· CSV2/3=1 · AMU=1 · 无 MTE（内存标签纠错不可用）</text>
  <text x="46" y="1320" font-size="11.5" fill="#1f2937">SDC 实验定位</text>
  <text x="406" y="1320" font-size="11.5" fill="#b91c1c">RAS=1 但无文档 → 有防御潜力但强度未知；64KB 页 × TLB 注入是未被文献覆盖的放大器实验</text>
  <text x="46" y="1339" font-size="11.5" fill="#1f2937">未决项（920f.md §7 原文）</text>
  <text x="406" y="1339" font-size="11.5" fill="#6b7280">SVE512 峰值复测 · 分支预测器容量（bpbench 中断过）· node16–31 内存节点性质（需 ddrc PMU 或 dmesg root）</text>
</svg>